<?xml version="1.0" standalone="no"?>
<!DOCTYPE svg PUBLIC "-//W3C//DTD SVG 20010904//EN"
 "http://www.w3.org/TR/2001/REC-SVG-20010904/DTD/svg10.dtd">
<svg version="1.0" xmlns="http://www.w3.org/2000/svg"
 width="500.000000pt" height="500.000000pt" viewBox="0 0 500.000000 500.000000"
 preserveAspectRatio="xMidYMid meet">
<metadata>
Created by potrace 1.14, written by Peter Selinger 2001-2017
</metadata>
<g transform="translate(0.000000,500.000000) scale(0.100000,-0.100000)"
fill="#000000" stroke="none">
<path d="M120 2455 l0 -2385 2390 0 2390 0 0 2385 0 2385 -2390 0 -2390 0 0
-2385z m4630 0 l0 -2235 -670 0 -670 0 0 667 0 668 -442 442 -443 443 -452
-452 -453 -453 0 -657 0 -658 -675 0 -675 0 0 2235 0 2235 2240 0 2240 0 0
-2235z m-1868 -622 l358 -358 0 -627 0 -628 -720 0 -720 0 0 622 0 622 358
362 c196 199 359 362 362 363 3 0 166 -160 362 -356z"/>
<path d="M2060 840 l0 -460 455 0 455 0 0 460 0 460 -455 0 -455 0 0 -460z
m730 0 l0 -280 -280 0 -280 0 0 280 0 280 280 0 280 0 0 -280z"/>
</g>
</svg>
