<?xml version="1.0" standalone="no"?>
<!DOCTYPE svg PUBLIC "-//W3C//DTD SVG 20010904//EN"
 "http://www.w3.org/TR/2001/REC-SVG-20010904/DTD/svg10.dtd">
<svg version="1.0" xmlns="http://www.w3.org/2000/svg"
 width="700.000000pt" height="700.000000pt" viewBox="0 0 700.000000 700.000000"
 preserveAspectRatio="xMidYMid meet">
<metadata>
Created by potrace 1.11, written by Peter Selinger 2001-2013
</metadata>
<g transform="translate(0.000000,700.000000) scale(0.100000,-0.100000)"
fill="#000000" stroke="none">
<path d="M3410 6483 c-25 -8 -58 -25 -75 -36 -26 -19 -268 -215 -345 -281 -14
-11 -48 -39 -75 -61 -28 -21 -52 -42 -55 -45 -3 -3 -39 -32 -80 -65 -41 -33
-84 -67 -95 -77 -11 -9 -61 -50 -112 -92 l-92 -75 0 191 c-1 215 -8 246 -72
283 -32 19 -54 20 -464 20 -412 0 -432 -1 -470 -20 -81 -41 -77 -4 -77 -721
l0 -637 -68 -56 c-37 -31 -109 -90 -159 -131 -51 -41 -105 -85 -119 -97 -61
-50 -552 -451 -592 -483 -24 -19 -48 -39 -54 -45 -6 -5 -45 -37 -86 -70 -41
-33 -77 -62 -80 -65 -3 -3 -53 -45 -112 -93 -88 -72 -109 -95 -119 -127 -37
-122 92 -225 198 -161 25 16 573 460 686 556 15 13 28 22 28 22 1 -1 3 -792 3
-1757 l2 -1756 22 -36 c46 -74 -188 -68 2544 -68 1534 0 2466 4 2487 10 37 10
78 52 88 90 4 14 7 809 7 1768 0 1203 3 1742 11 1742 5 0 24 -13 40 -28 25
-23 143 -120 409 -335 22 -18 44 -36 50 -42 71 -65 221 -177 245 -181 68 -14
123 12 155 73 33 65 13 130 -60 189 -27 21 -51 41 -54 44 -3 3 -27 23 -55 45
-27 22 -59 48 -70 57 -11 9 -211 173 -445 363 -363 297 -513 420 -615 504 -11
9 -81 65 -155 126 -74 60 -140 114 -146 120 -6 5 -64 53 -129 105 -119 96
-277 225 -350 286 -22 18 -85 69 -140 114 -55 45 -109 89 -120 98 -11 10 -67
55 -125 102 -58 46 -107 87 -110 90 -3 3 -39 33 -80 66 -41 32 -86 69 -100 81
-14 11 -81 67 -150 123 -69 56 -134 109 -145 118 -11 9 -42 35 -70 57 -62 50
-95 77 -109 90 -6 6 -37 30 -68 54 -92 69 -185 87 -278 54z m157 -328 c29 -12
193 -139 358 -276 11 -10 90 -74 175 -144 85 -70 164 -134 175 -143 11 -10 77
-63 146 -119 69 -56 132 -107 140 -115 8 -7 57 -48 109 -89 52 -42 105 -85
117 -95 12 -11 244 -200 515 -422 l494 -403 -1 -1782 0 -1782 -2295 0 -2295 0
-1 1783 0 1782 85 69 c96 77 254 206 322 263 24 20 134 109 244 199 110 89
202 165 205 168 3 3 39 33 80 66 41 32 77 61 80 64 3 4 28 24 55 46 28 22 55
44 61 50 6 5 78 64 159 130 81 66 231 189 334 273 592 486 600 492 663 492 21
0 55 -7 75 -15z m-1366 -205 c1 -11 2 -109 3 -217 l1 -198 -30 -30 c-17 -16
-42 -39 -55 -50 -68 -55 -297 -242 -315 -257 -70 -58 -120 -98 -125 -98 -4 0
-5 821 -1 855 1 7 89 11 261 13 252 1 260 1 261 -18z"/>
</g>
</svg>
